# xmcd CD database file
#
# Track frame offsets:
#	182
#	15357
#	40257
#	61370
#	79907
#	93170
#	124507
#	136087
#	156557
#	173767
#	198740
#	219232
#
# Disc length: 3018 seconds
#
# Revision: 0
# Processed by: cddbd v1.5.2PL0 Copyright (c) Steve Scherf et al.
# Submitted via: CDex 1.70beta2
#
DISCID=990bc80c
DTITLE=HEAVEN THE HILLS - AT LAST
DYEAR=1997
DGENRE=Jazz
TTITLE0=I'd better learned
TTITLE1=My House
TTITLE2=Caroussel
TTITLE3=One Day I'm gonna be a Star
TTITLE4=D´un Couple d ´un certain age
TTITLE5=Confused by Days
TTITLE6=Isabella
TTITLE7=Shrill Voice
TTITLE8=Cold Atmosphere
TTITLE9=Black Sea
TTITLE10=Without a Will
TTITLE11=Traffic
EXTD=YEAR: 1997
EXTT0=
EXTT1=
EXTT2=
EXTT3=
EXTT4=
EXTT5=
EXTT6=
EXTT7=
EXTT8=
EXTT9=
EXTT10=
EXTT11=
PLAYORDER=
